{"title":"Vallavanukku Pullum Aayudham 2014 CAM Rip x264 AC3 - Detor","uid":10130471,"size":908803125,"categoryP":"video","categoryS":"movies","magnet":"?xt=urn:btih:f356b383e56b729624b04424e5223fc2725aa363&amp;dn=Vallavanukku+Pullum+Aayudham+2014+CAM+Rip+x264+AC3+-+Detor&amp;tr=udp%3A%2F%2Ftracker.openbittorrent.com%3A80&amp;tr=udp%3A%2F%2Fopen.demonii.com%3A1337&amp;tr=udp%3A%2F%2Ftracker.coppersurfer.tk%3A6969&amp;tr=udp%3A%2F%2Fexodus.desync.com%3A6969","seeders":1,"leechers":0,"uploader":null,"files":1,"time":1399834414,"description":"[CENTER][URL=http://ttsnapshot.biz/show.php/112466_vallavanukku-pullum-aayudham-movie-new-posters-06.jpg.html][IMG]http://ttsnapshot.biz/out.php/t112466_vallavanukku-pullum-aayudham-movie-new-posters-06.jpg[/IMG][/URL]\n\n[B][COLOR=&quot;Red&quot;][FONT=&quot;Arial Black&quot;][ Media Info][/FONT][/COLOR][/B]\n[CODE]\nComplete name                            : VPA.CAMRip.x264-Detor.mkv\nFormat                                   : Matroska\nFormat version                           : Version 2\nFile size                                : 867 MiB\nDuration                                 : 2h 23mn\nOverall bit rate                         : 843 Kbps\n\nVideo\nID                                       : 1\nFormat                                   : AVC\nFormat/Info                              : Advanced Video Codec\nFormat profile                           : &lt;a class=&quot;__cf_email__&quot; href=&quot;/cdn-cgi/l/email-protection&quot; data-cfemail=&quot;80c8e9e7e8c0ccb2aeb2&quot;&gt;[email&amp;#160;protected]&lt;/a&gt;&lt;script cf-hash='f9e31' type=&quot;text/javascript&quot;&gt;\n/* &lt;![CDATA[ */!function(){try{var t=&quot;currentScript&quot;in document?document.currentScript:function(){for(var t=document.getElementsByTagName(&quot;script&quot;),e=t.length;e--;)if(t[e].getAttribute(&quot;cf-hash&quot;))return t[e]}();if(t&amp;&amp;t.previousSibling){var e,r,n,i,c=t.previousSibling,a=c.getAttribute(&quot;data-cfemail&quot;);if(a){for(e=&quot;&quot;,r=parseInt(a.substr(0,2),16),n=2;a.length-n;n+=2)i=parseInt(a.substr(n,2),16)^r,e+=String.fromCharCode(i);e=document.createTextNode(e),c.parentNode.replaceChild(e,c)}}}catch(u){}}();/* ]]&gt; */&lt;/script&gt;\nFormat settings, CABAC                   : Yes\nFormat settings, ReFrames                : 4 frames\nCodec ID                                 : V_MPEG4/ISO/AVC\nDuration                                 : 2h 23mn\nBit rate                                 : 681 Kbps\nWidth                                    : 720 pixels\nHeight                                   : 306 pixels\nDisplay aspect ratio                     : 2.35:1\nFrame rate mode                          : Constant\nFrame rate                               : 14.259 fps\nOriginal frame rate                      : 14.257 fps\nColor space                              : YUV\nChroma subsampling                       : 4:2:0\nBit depth                                : 8 bits\nScan type                                : Progressive\nBits/(Pixel*Frame)                       : 0.217\nStream size                              : 685 MiB (79%)\n\nAudio\nID                                       : 2\nFormat                                   : AC-3\nFormat/Info                              : Audio Coding 3\nMode extension                           : CM (complete main)\nFormat settings, Endianness              : Big\nCodec ID                                 : A_AC3\nDuration                                 : 2h 23mn\nBit rate mode                            : Constant\nBit rate                                 : 160 Kbps\nChannel(s)                               : 6 channels\nChannel positions                        : Front: L C R, Side: L R, LFE\nSampling rate                            : 44.1 KHz\nBit depth                                : 16 bits\nCompression mode                         : Lossy\nStream size                              : 164 MiB (19%)\nLanguage                                 : unknown\nDefault                                  : Yes\nForced                                   : No\n[/CODE]\n\n[URL=http://ttsnapshot.biz/show.php/112550_vlcsnap-2014-05-12-01h19m54s23.png.html][IMG]http://ttsnapshot.biz/out.php/t112550_vlcsnap-2014-05-12-01h19m54s23.png[/IMG][/URL][URL=http://ttsnapshot.biz/show.php/112549_vlcsnap-2014-05-12-01h19m34s82.png.html][IMG]http://ttsnapshot.biz/out.php/t112549_vlcsnap-2014-05-12-01h19m34s82.png[/IMG][/URL][URL=http://ttsnapshot.biz/show.php/112548_vlcsnap-2014-05-12-01h19m29s12.png.html][IMG]http://ttsnapshot.biz/out.php/t112548_vlcsnap-2014-05-12-01h19m29s12.png[/IMG][/URL][URL=http://ttsnapshot.biz/show.php/112547_vlcsnap-2014-05-12-01h19m14s137.png.html][IMG]http://ttsnapshot.biz/out.php/t112547_vlcsnap-2014-05-12-01h19m14s137.png[/IMG][/URL][URL=http://ttsnapshot.biz/show.php/112546_vlcsnap-2014-05-12-01h19m03s24.png.html][IMG]http://ttsnapshot.biz/out.php/t112546_vlcsnap-2014-05-12-01h19m03s24.png[/IMG][/URL][URL=http://ttsnapshot.biz/show.php/112545_vlcsnap-2014-05-12-01h17m48s83.png.html][IMG]http://ttsnapshot.biz/out.php/t112545_vlcsnap-2014-05-12-01h17m48s83.png[/IMG][/URL]\n\n[B][COLOR=&quot;red&quot;][Notes][/COLOR][/B]\n[CODE]Did Some Work on This Copy.\nWorked on the Brightness and Colouring\ni Sharpen it.\nCam Shakes and Goes out of Focus for Few Secs.\nYou can Hear People Whistling and Commenting.\nIts A CAM Copy. Take it or Leave it.[/CODE]\n\n[B][COLOR=&quot;red&quot;]Source : Dinesh Thiru [I][U][Thanks][/U][/I]\nEncoded : Detor[/COLOR][/B][/CENTER]","torrent":{"xt":"urn:btih:f356b383e56b729624b04424e5223fc2725aa363","amp;dn":"Vallavanukku+Pullum+Aayudham+2014+CAM+Rip+x264+AC3+-+Detor","amp;tr":["udp%3A%2F%2Ftracker.openbittorrent.com%3A80","udp%3A%2F%2Fopen.demonii.com%3A1337","udp%3A%2F%2Ftracker.coppersurfer.tk%3A6969","udp%3A%2F%2Fexodus.desync.com%3A6969"],"infoHash":"f356b383e56b729624b04424e5223fc2725aa363","infoHashBuffer":{"type":"Buffer","data":[243,86,179,131,229,107,114,150,36,176,68,36,229,34,63,194,114,90,163,99]},"announce":[],"urlList":[]}}